<svg width="157" height="162" viewBox="0 0 157 162" fill="none" xmlns="http://www.w3.org/2000/svg">
<circle cx="78.5" cy="83.9999" r="78" fill="url(#paint0_radial_2324_45912)" fill-opacity="0.5"/>
<g clip-path="url(#clip0_2324_45912)">
<path d="M84.2852 64.1797L41.9458 74.8991L11.787 64.0459L22.0469 44.507L77.1375 44.581L84.2852 64.1797Z" fill="url(#paint1_linear_2324_45912)"/>
<path d="M141.995 64.2696L111.38 74.9883L76.7031 44.5844L131.805 44.6908L141.995 64.2696Z" fill="url(#paint2_linear_2324_45912)"/>
<path d="M104.265 33.853L49.1743 33.7791L21.6126 44.5103L49.1414 55.3155L104.243 55.4219L131.805 44.6907L104.265 33.853Z" fill="url(#paint3_linear_2324_45912)"/>
<path d="M111.38 74.9877L41.946 74.899L49.1414 55.315L104.243 55.4214L111.38 74.9877Z" fill="url(#paint4_linear_2324_45912)"/>
<path d="M76.5378 135.532L41.9458 74.899L111.38 74.9877L76.5378 135.532Z" fill="url(#paint5_linear_2324_45912)"/>
<path d="M76.5379 135.533L11.7871 64.0465L41.9459 74.8997L76.5379 135.533Z" fill="url(#paint6_linear_2324_45912)"/>
<path d="M111.38 74.9885L141.995 64.2699L76.5382 135.533L111.38 74.9885Z" fill="url(#paint7_linear_2324_45912)"/>
<path d="M141.995 64.2696L111.181 74.5114C110.921 74.6001 110.771 74.9053 110.86 75.1655C110.937 75.3932 111.123 75.5115 111.34 75.51C111.405 75.4879 111.437 75.4768 111.503 75.4547C111.503 75.4547 142.061 64.3561 141.984 64.237L141.995 64.2696Z" fill="url(#paint8_linear_2324_45912)"/>
<path d="M111.68 74.3782L104.886 55.7116C108.462 54.2756 131.784 44.8434 131.805 44.6912L104.142 54.9124L49.2576 54.8045C49.2576 54.8045 22.9275 44.5348 22.1012 44.4533C22.1455 44.5834 45.0048 54.1478 48.5131 55.6026L41.6484 74.2391L11.7873 64.0468L41.6119 75.3042L73.5878 131.348C73.5878 131.348 73.5878 131.348 73.6099 131.413C74.5009 133.069 75.3662 134.118 76.5492 135.566C76.7547 135.423 46.7767 82.4745 42.83 75.4701L110.493 75.5812C106.518 82.5614 76.3637 135.448 76.5492 135.566C76.6475 135.641 79.4351 131.57 79.4565 131.527L111.72 75.4537C111.72 75.4537 142.028 64.3676 142.006 64.3025C137.603 65.657 115.193 73.1817 111.68 74.3782ZM49.5035 55.846L103.877 55.9464L110.638 74.5154L42.6706 74.3628L49.4924 55.8135L49.5035 55.846Z" fill="url(#paint9_linear_2324_45912)"/>
<path opacity="0.54" d="M28.0696 46.6306L18.8984 66.4884L26.3386 69.3626L35.4705 50.1353L28.0696 46.6306Z" fill="url(#paint10_linear_2324_45912)"/>
<path opacity="0.54" d="M41.4718 52.302L34.3214 72.1247L37.883 73.4162L45.0223 53.5609L41.4718 52.302Z" fill="url(#paint11_linear_2324_45912)"/>
<path opacity="0.54" d="M51.8135 75.0961L76.5705 135.522L59.9944 74.923L51.8135 75.0961Z" fill="url(#paint12_linear_2324_45912)"/>
<path opacity="0.54" d="M51.8133 75.0962L56.7802 55.3638L64.2234 55.3693L59.9942 74.9231L51.8133 75.0962Z" fill="url(#paint13_linear_2324_45912)"/>
<g style="mix-blend-mode:overlay">
<path d="M78.4504 55.8957C78.4648 39.8466 65.797 26.847 50.1064 26.8194C34.4159 26.7917 21.6247 39.7516 21.6102 55.8006C21.5958 71.8496 34.2636 84.8492 49.9542 84.8769C65.6447 84.9045 78.3924 71.9232 78.4068 55.8742L78.4504 55.8957Z" fill="url(#paint14_radial_2324_45912)"/>
</g>
<path d="M51.4421 53.2258L50.0306 43.434L48.606 53.2117L43.2879 55.8218L48.6076 58.4382L49.9866 68.2411L51.4437 58.4523L56.7618 55.8422L51.4421 53.2258Z" fill="url(#paint15_linear_2324_45912)"/>
<path d="M52.6449 54.4125L56.813 45.4426L50.266 52.8634L44.3611 52.1523L47.4044 57.2502L43.2363 66.2202L49.7833 58.7993L55.6556 59.5215L52.6449 54.4125Z" fill="url(#paint16_linear_2324_45912)"/>
<g style="mix-blend-mode:overlay">
<path d="M32.2828 44.5064C32.299 38.6931 27.6828 33.9857 22.0217 33.9902C16.3495 33.9622 11.719 38.6974 11.7242 44.4672C11.708 50.2805 16.3242 54.9879 21.9853 54.9834C27.6575 55.0114 32.2879 50.2762 32.2828 44.5064Z" fill="url(#paint17_radial_2324_45912)"/>
</g>
<path d="M21.9785 48.9965L21.0644 45.4602L17.6135 44.494L21.0737 43.5694L22.0067 40.021L22.9208 43.5573L26.4042 44.5125L22.9115 45.4481L21.9785 48.9965Z" fill="url(#paint18_linear_2324_45912)"/>
</g>
<defs>
<radialGradient id="paint0_radial_2324_45912" cx="0" cy="0" r="1" gradientUnits="userSpaceOnUse" gradientTransform="translate(78.5 89.9999) rotate(95.6093) scale(56.2694)">
<stop stop-color="#14F3C5"/>
<stop offset="1" stop-color="#14F3C5" stop-opacity="0"/>
</radialGradient>
<linearGradient id="paint1_linear_2324_45912" x1="31.926" y1="31.7947" x2="73.7188" y2="80.0319" gradientUnits="userSpaceOnUse">
<stop stop-color="#E9FFF8"/>
<stop offset="0.16" stop-color="#98FFE1"/>
<stop offset="0.44" stop-color="#14F3C5"/>
<stop offset="0.8" stop-color="#00B390"/>
<stop offset="1" stop-color="#008F77"/>
</linearGradient>
<linearGradient id="paint2_linear_2324_45912" x1="96.3078" y1="28.2521" x2="141.908" y2="71.9523" gradientUnits="userSpaceOnUse">
<stop stop-color="#E9FFF8"/>
<stop offset="0.16" stop-color="#98FFE1"/>
<stop offset="0.44" stop-color="#14F3C5"/>
<stop offset="0.8" stop-color="#00B390"/>
<stop offset="1" stop-color="#008F77"/>
</linearGradient>
<linearGradient id="paint3_linear_2324_45912" x1="60.7746" y1="20.5883" x2="97.2041" y2="75.4222" gradientUnits="userSpaceOnUse">
<stop stop-color="#E9FFF8"/>
<stop offset="0.16" stop-color="#98FFE1"/>
<stop offset="0.44" stop-color="#14F3C5"/>
<stop offset="0.8" stop-color="#00B390"/>
<stop offset="1" stop-color="#008F77"/>
</linearGradient>
<linearGradient id="paint4_linear_2324_45912" x1="60.5789" y1="42.0718" x2="102.833" y2="89.368" gradientUnits="userSpaceOnUse">
<stop stop-color="#E9FFF8"/>
<stop offset="0.16" stop-color="#98FFE1"/>
<stop offset="0.44" stop-color="#14F3C5"/>
<stop offset="0.8" stop-color="#00B390"/>
<stop offset="1" stop-color="#008F77"/>
</linearGradient>
<linearGradient id="paint5_linear_2324_45912" x1="63.6062" y1="50.9599" x2="144.24" y2="105.939" gradientUnits="userSpaceOnUse">
<stop stop-color="#E9FFF8"/>
<stop offset="0.16" stop-color="#98FFE1"/>
<stop offset="0.44" stop-color="#14F3C5"/>
<stop offset="0.8" stop-color="#00B390"/>
<stop offset="1" stop-color="#008F77"/>
</linearGradient>
<linearGradient id="paint6_linear_2324_45912" x1="20.809" y1="39.5809" x2="100.113" y2="56.6697" gradientUnits="userSpaceOnUse">
<stop stop-color="#E9FFF8"/>
<stop offset="0.16" stop-color="#98FFE1"/>
<stop offset="0.44" stop-color="#14F3C5"/>
<stop offset="0.8" stop-color="#00B390"/>
<stop offset="1" stop-color="#008F77"/>
</linearGradient>
<linearGradient id="paint7_linear_2324_45912" x1="92.7144" y1="69.8576" x2="142.346" y2="128.484" gradientUnits="userSpaceOnUse">
<stop stop-color="#E9FFF8"/>
<stop offset="0.16" stop-color="#98FFE1"/>
<stop offset="0.44" stop-color="#14F3C5"/>
<stop offset="0.8" stop-color="#00B390"/>
<stop offset="1" stop-color="#008F77"/>
</linearGradient>
<linearGradient id="paint8_linear_2324_45912" x1="126.21" y1="52.4858" x2="127.177" y2="128.492" gradientUnits="userSpaceOnUse">
<stop stop-color="#FFFAFF"/>
<stop offset="0.09" stop-color="#FEF5FE" stop-opacity="0.97"/>
<stop offset="0.22" stop-color="#FEEAFD" stop-opacity="0.88"/>
<stop offset="0.38" stop-color="#FCD7FC" stop-opacity="0.74"/>
<stop offset="0.57" stop-color="#FBBDFA" stop-opacity="0.55"/>
<stop offset="0.78" stop-color="#F99CF8" stop-opacity="0.3"/>
<stop offset="1" stop-color="#F774F6" stop-opacity="0"/>
</linearGradient>
<linearGradient id="paint9_linear_2324_45912" x1="76.7642" y1="53.1215" x2="77.7312" y2="129.128" gradientUnits="userSpaceOnUse">
<stop stop-color="#FFFAFF"/>
<stop offset="0.09" stop-color="#FEF5FE" stop-opacity="0.97"/>
<stop offset="0.22" stop-color="#FEEAFD" stop-opacity="0.88"/>
<stop offset="0.38" stop-color="#FCD7FC" stop-opacity="0.74"/>
<stop offset="0.57" stop-color="#FBBDFA" stop-opacity="0.55"/>
<stop offset="0.78" stop-color="#F99CF8" stop-opacity="0.3"/>
<stop offset="1" stop-color="#F774F6" stop-opacity="0"/>
</linearGradient>
<linearGradient id="paint10_linear_2324_45912" x1="23.465" y1="56.5332" x2="31.8088" y2="59.8807" gradientUnits="userSpaceOnUse">
<stop stop-color="#FFFAFF"/>
<stop offset="0.09" stop-color="#F8F8FE" stop-opacity="0.97"/>
<stop offset="0.22" stop-color="#E8F5FD" stop-opacity="0.88"/>
<stop offset="0.38" stop-color="#CCF0FB" stop-opacity="0.74"/>
<stop offset="0.57" stop-color="#A6E8F9" stop-opacity="0.55"/>
<stop offset="0.78" stop-color="#75DFF6" stop-opacity="0.3"/>
<stop offset="1" stop-color="#3AD4F3" stop-opacity="0"/>
</linearGradient>
<linearGradient id="paint11_linear_2324_45912" x1="34.3463" y1="62.8402" x2="44.998" y2="62.8588" gradientUnits="userSpaceOnUse">
<stop stop-color="#FFFAFF"/>
<stop offset="0.09" stop-color="#F8F8FE" stop-opacity="0.97"/>
<stop offset="0.22" stop-color="#E8F5FD" stop-opacity="0.88"/>
<stop offset="0.38" stop-color="#CCF0FB" stop-opacity="0.74"/>
<stop offset="0.57" stop-color="#A6E8F9" stop-opacity="0.55"/>
<stop offset="0.78" stop-color="#75DFF6" stop-opacity="0.3"/>
<stop offset="1" stop-color="#3AD4F3" stop-opacity="0"/>
</linearGradient>
<linearGradient id="paint12_linear_2324_45912" x1="51.7621" y1="105.168" x2="76.6046" y2="105.211" gradientUnits="userSpaceOnUse">
<stop stop-color="#FFFAFF"/>
<stop offset="0.09" stop-color="#F8F8FE" stop-opacity="0.97"/>
<stop offset="0.22" stop-color="#E8F5FD" stop-opacity="0.88"/>
<stop offset="0.38" stop-color="#CCF0FB" stop-opacity="0.74"/>
<stop offset="0.57" stop-color="#A6E8F9" stop-opacity="0.55"/>
<stop offset="0.78" stop-color="#75DFF6" stop-opacity="0.3"/>
<stop offset="1" stop-color="#3AD4F3" stop-opacity="0"/>
</linearGradient>
<linearGradient id="paint13_linear_2324_45912" x1="51.8316" y1="65.2073" x2="64.2013" y2="65.2288" gradientUnits="userSpaceOnUse">
<stop stop-color="#FFFAFF"/>
<stop offset="0.09" stop-color="#F8F8FE" stop-opacity="0.97"/>
<stop offset="0.22" stop-color="#E8F5FD" stop-opacity="0.88"/>
<stop offset="0.38" stop-color="#CCF0FB" stop-opacity="0.74"/>
<stop offset="0.57" stop-color="#A6E8F9" stop-opacity="0.55"/>
<stop offset="0.78" stop-color="#75DFF6" stop-opacity="0.3"/>
<stop offset="1" stop-color="#3AD4F3" stop-opacity="0"/>
</linearGradient>
<radialGradient id="paint14_radial_2324_45912" cx="0" cy="0" r="1" gradientUnits="userSpaceOnUse" gradientTransform="translate(44.725 55.9206) rotate(0.0998908) scale(28.3008 28.9667)">
<stop stop-color="white"/>
<stop offset="0.28" stop-color="white" stop-opacity="0.69"/>
<stop offset="0.63" stop-color="white" stop-opacity="0.32"/>
<stop offset="0.88" stop-color="white" stop-opacity="0.09"/>
<stop offset="1" stop-color="white" stop-opacity="0"/>
</radialGradient>
<linearGradient id="paint15_linear_2324_45912" x1="50.7301" y1="46.7197" x2="49.1136" y2="67.3675" gradientUnits="userSpaceOnUse">
<stop stop-color="white"/>
<stop offset="1" stop-color="#FFFDFF"/>
</linearGradient>
<linearGradient id="paint16_linear_2324_45912" x1="55.7695" y1="48.6892" x2="43.1813" y2="65.089" gradientUnits="userSpaceOnUse">
<stop stop-color="white"/>
<stop offset="1" stop-color="#FFFDFF"/>
</linearGradient>
<radialGradient id="paint17_radial_2324_45912" cx="0" cy="0" r="1" gradientUnits="userSpaceOnUse" gradientTransform="translate(16.8236 44.6022) rotate(0.0998948) scale(10.2514 10.4926)">
<stop stop-color="white"/>
<stop offset="0.28" stop-color="white" stop-opacity="0.69"/>
<stop offset="0.63" stop-color="white" stop-opacity="0.32"/>
<stop offset="0.88" stop-color="white" stop-opacity="0.09"/>
<stop offset="1" stop-color="white" stop-opacity="0"/>
</radialGradient>
<linearGradient id="paint18_linear_2324_45912" x1="22.2549" y1="41.207" x2="21.6578" y2="48.6622" gradientUnits="userSpaceOnUse">
<stop stop-color="white"/>
<stop offset="1" stop-color="#FFFDFF"/>
</linearGradient>
<clipPath id="clip0_2324_45912">
<rect width="123.182" height="114.248" fill="white" transform="translate(3.5 39.7178) rotate(-18.8101)"/>
</clipPath>
</defs>
</svg>
