<svg width="24" height="24" viewBox="0 0 24 24" fill="none" xmlns="http://www.w3.org/2000/svg">
<g clip-path="url(#clip0_36_17528)">
<path d="M11.2518 0.932106C11.6639 1.20534 12.3382 1.20534 12.7497 0.932106L13.8378 0.209106C14.2497 -0.0645032 14.8031 0.0535749 15.068 0.471184L15.7679 1.57504C16.0327 1.99242 16.6483 2.2665 17.1358 2.18404L18.4241 1.96575C18.9116 1.8832 19.3698 2.21568 19.4415 2.70483L19.6326 3.99543C19.7051 4.48467 20.1555 4.98628 20.6346 5.10965L21.8988 5.43572C22.378 5.55956 22.6608 6.05058 22.5277 6.52678L22.1776 7.78148C22.0446 8.25764 22.2526 8.89903 22.6401 9.20648L23.6663 10.0206C24.0537 10.328 24.1124 10.8909 23.7972 11.2722L22.9641 12.2779C22.6489 12.6587 22.5785 13.3291 22.8074 13.7673L23.4124 14.924C23.6413 15.3625 23.4668 15.9011 23.0239 16.1209L21.8535 16.7018C21.4106 16.9217 21.0739 17.5057 21.1047 17.9991L21.1856 19.302C21.2169 19.7952 20.8376 20.2165 20.3433 20.2376L19.0386 20.2928C18.5447 20.3139 17.9996 20.7104 17.8269 21.1741L17.373 22.3968C17.2004 22.8606 16.6832 23.0912 16.2234 22.9093L15.008 22.4288C14.5485 22.2468 13.8891 22.3868 13.543 22.7402L12.6302 23.6726C12.284 24.0258 11.7179 24.0258 11.3715 23.6731L10.4572 22.7401C10.1109 22.387 9.45149 22.247 8.99174 22.4289L7.77688 22.9094C7.31718 23.0915 6.79996 22.8608 6.62765 22.3969L6.17273 21.1742C6.00027 20.7106 5.45512 20.314 4.96096 20.2929L3.6568 20.2377C3.16251 20.2165 2.78366 19.7952 2.81451 19.302L2.89612 17.9992C2.92682 17.5059 2.58965 16.9218 2.14682 16.7019L0.97682 16.121C0.534038 15.9011 0.35896 15.3627 0.588038 14.9241L1.1931 13.7674C1.42204 13.3292 1.35163 12.6589 1.03602 12.2783L0.202819 11.2713C-0.112556 10.8907 -0.053493 10.3278 0.333741 10.0203L1.36021 9.20625C1.74744 8.89879 1.95566 8.25778 1.82282 7.78139L1.47182 6.52617C1.33888 6.05001 1.62182 5.55933 2.10051 5.43623L3.36566 5.10947C3.84435 4.98623 4.29543 4.48462 4.36766 3.99539L4.55859 2.70478C4.63096 2.21564 5.08888 1.88315 5.57629 1.9657L6.86474 2.184C7.35229 2.26645 7.9678 1.99237 8.23227 1.575L8.93188 0.471137C9.19635 0.053528 9.75018 -0.0645501 10.1624 0.209059L11.2518 0.932106Z" fill="#98FFE1"/>
<path d="M19.7648 12.0125C19.7648 16.301 16.288 19.7774 12 19.7774C7.71212 19.7774 4.23535 16.301 4.23535 12.0125C4.23535 7.72539 7.71198 4.2489 12 4.2489C16.288 4.2489 19.7648 7.72539 19.7648 12.0125Z" fill="#00B390"/>
<path d="M10.7057 15.6396L7.59766 12.5314L8.63313 11.4955L10.7057 13.5676L15.3674 8.90527L16.4029 9.94159L10.7057 15.6396Z" fill="white"/>
</g>
<defs>
<clipPath id="clip0_36_17528">
<rect width="24" height="24" fill="white"/>
</clipPath>
</defs>
</svg>
